<?xml version="1.0" standalone="no"?>
<!DOCTYPE svg PUBLIC "-//W3C//DTD SVG 20010904//EN"
 "http://www.w3.org/TR/2001/REC-SVG-20010904/DTD/svg10.dtd">
<svg version="1.0" xmlns="http://www.w3.org/2000/svg"
 width="512.000000pt" height="512.000000pt" viewBox="0 0 512.000000 512.000000"
 preserveAspectRatio="xMidYMid meet">
<metadata>
Created by potrace 1.15, written by Peter Selinger 2001-2017
</metadata>
<g transform="translate(0.000000,512.000000) scale(0.100000,-0.100000)"
fill="#000000" stroke="none">
<path d="M470 4295 l0 -555 2080 0 2080 0 0 555 0 555 -2080 0 -2080 0 0 -555z
m801 269 c15 -13 19 -31 19 -79 0 -46 4 -66 18 -78 26 -24 148 -81 229 -108
40 -13 73 -27 73 -30 0 -6 -127 -19 -191 -19 -52 0 -143 36 -186 73 -31 27
-34 35 -29 66 5 33 4 35 -9 17 -8 -11 -15 -25 -15 -32 0 -26 57 -78 115 -105
51 -25 73 -29 142 -29 69 0 91 -4 150 -31 37 -17 79 -36 93 -41 l25 -11 -25
-7 c-14 -5 -39 -8 -57 -9 -17 -1 -34 -5 -37 -9 -2 -4 4 -27 14 -50 11 -23 17
-42 14 -42 -3 0 -47 25 -98 55 -50 30 -97 55 -104 55 -7 0 -12 -10 -12 -21 0
-21 -1 -21 -27 -4 -25 17 -27 17 -43 -5 -17 -23 -17 -22 -24 34 -5 37 -12 56
-19 53 -7 -2 -11 -18 -9 -38 4 -33 3 -33 -16 -16 -11 10 -26 15 -36 11 -11 -4
-16 -1 -16 11 0 9 9 19 19 22 17 4 10 15 -45 67 -58 56 -64 65 -64 102 0 22 7
49 15 60 19 25 19 43 -1 65 -15 16 -13 21 17 59 30 38 37 41 68 36 18 -3 42
-13 52 -22z m1058 11 c35 -18 41 -32 41 -100 0 -50 3 -56 35 -80 19 -15 83
-46 142 -70 59 -23 117 -46 128 -50 14 -6 -1 -11 -55 -17 -119 -14 -188 -6
-259 32 -69 37 -85 58 -79 101 5 35 -9 39 -18 5 -11 -44 20 -82 97 -120 65
-33 80 -36 153 -36 74 0 89 -3 175 -42 99 -44 101 -54 14 -57 -43 -1 -47 -13
-22 -62 26 -51 22 -50 -97 21 -45 28 -87 50 -93 50 -6 0 -11 -10 -11 -21 0
-21 -1 -21 -27 -4 -25 17 -27 17 -44 -6 -17 -23 -17 -23 -24 34 -5 41 -12 57
-22 57 -12 0 -14 -8 -8 -37 7 -38 7 -38 -14 -19 -17 15 -23 16 -36 6 -13 -11
-15 -9 -15 14 0 19 5 26 19 26 15 0 4 16 -45 63 -58 57 -64 67 -64 103 0 22 7
49 15 60 20 26 19 48 -3 68 -18 16 -18 18 17 56 38 43 57 48 100 25z m1081 0
c28 -15 30 -19 30 -77 0 -56 3 -63 34 -93 33 -31 158 -90 246 -116 22 -7 40
-15 40 -19 0 -8 -110 -20 -185 -20 -37 0 -70 9 -122 34 -83 40 -112 74 -95
111 7 15 8 25 2 25 -16 0 -23 -50 -12 -75 26 -56 143 -105 250 -105 69 0 86
-4 171 -42 98 -45 100 -54 14 -57 -42 -1 -47 -12 -28 -57 8 -20 14 -38 12 -40
-2 -2 -43 21 -92 51 -99 60 -115 65 -115 35 0 -25 -8 -25 -33 -3 -18 17 -20
17 -37 -5 l-19 -23 -6 38 c-12 73 -16 84 -26 77 -7 -4 -9 -21 -6 -40 6 -36 -3
-43 -23 -19 -10 12 -16 13 -26 4 -11 -9 -14 -6 -14 15 0 20 5 26 23 26 20 0
19 3 -13 27 -102 79 -124 128 -88 199 l22 44 -24 25 c-13 14 -18 25 -11 25 6
0 21 16 32 35 24 39 51 45 99 20z"/>
<path d="M470 2926 c0 -771 0 -778 51 -986 59 -237 190 -534 313 -705 136
-188 305 -343 491 -448 44 -25 337 -154 651 -286 l571 -240 564 238 c310 131
589 250 619 266 195 99 420 304 553 505 130 197 233 436 292 680 53 224 55
251 55 1003 l0 697 -2080 0 -2080 0 0 -724z m1301 484 c78 -40 127 -143 150
-316 7 -55 9 -181 6 -347 -5 -286 -18 -370 -73 -464 -54 -92 -176 -130 -277
-85 -131 58 -173 232 -164 675 4 212 8 264 25 329 33 124 67 176 137 212 44
23 146 21 196 -4z m-626 -22 c92 -50 126 -121 133 -275 6 -139 -17 -230 -73
-289 l-35 -37 63 -294 64 -293 -81 0 -82 0 -53 258 c-29 141 -57 264 -61 272
-5 9 -20 15 -37 14 l-28 -1 -3 -271 -2 -272 -80 0 -80 0 0 603 c0 332 2 606 4
608 2 2 76 2 163 -1 121 -4 165 -9 188 -22z m1735 -458 l100 0 0 240 0 240 80
0 80 0 0 -605 0 -605 -80 0 -80 0 0 285 0 285 -100 0 -100 0 0 -285 0 -285
-75 0 -75 0 0 605 0 604 73 3 72 3 3 -242 2 -243 100 0z m870 410 l0 -80 -130
0 -130 0 0 -170 0 -170 100 0 100 0 0 -80 0 -80 -100 0 -100 0 0 -205 0 -205
145 0 145 0 0 -75 0 -75 -225 0 -225 0 0 605 0 605 208 3 c114 1 208 3 210 5
1 1 2 -34 2 -78z m-1250 -5 l0 -75 -85 0 -85 0 0 -530 0 -530 -80 0 -80 0 0
530 0 530 -85 0 -85 0 0 75 0 75 250 0 250 0 0 -75z m1734 63 c23 -7 59 -30
82 -54 58 -58 78 -122 78 -254 1 -130 -19 -200 -72 -260 l-38 -43 63 -286 c34
-157 63 -289 63 -293 0 -5 -36 -8 -80 -8 -44 0 -80 3 -81 8 0 4 -26 126 -57
271 l-57 265 -35 0 -35 0 0 -272 0 -272 -77 0 -78 0 0 605 0 605 141 0 c83 0
159 -5 183 -12z m-1289 -1558 c175 -34 309 -107 480 -260 166 -148 249 -169
520 -132 77 11 142 18 143 16 7 -5 -152 -52 -230 -68 -107 -22 -190 -20 -300
8 -153 39 -217 77 -393 230 -69 60 -136 109 -180 130 -71 35 -229 86 -269 86
-11 0 -28 5 -36 11 -22 15 155 1 265 -21z m-725 -25 c286 -55 470 -152 725
-381 156 -140 226 -187 320 -216 95 -30 244 -28 485 6 102 14 190 26 195 25
21 -1 -165 -61 -280 -90 -215 -54 -375 -50 -575 13 -185 59 -282 119 -484 303
-148 134 -219 186 -310 229 -95 45 -244 92 -369 116 l-102 20 155 -4 c85 -3
193 -12 240 -21z m-955 -16 c312 -33 602 -143 828 -312 53 -40 155 -126 228
-192 169 -154 216 -189 315 -236 106 -51 234 -73 364 -66 89 6 525 60 580 73
16 3 22 2 15 -4 -13 -13 -238 -83 -370 -116 -144 -36 -216 -46 -336 -46 -131
0 -247 20 -392 66 -228 74 -369 163 -620 392 -233 214 -342 282 -568 356 -104
34 -323 85 -377 87 -23 1 -22 2 8 8 47 8 203 4 325 -10z"/>
<path d="M1637 3269 c-55 -32 -70 -150 -65 -511 4 -226 8 -293 21 -334 21 -64
45 -86 89 -82 69 6 88 102 88 453 0 336 -18 447 -76 474 -30 13 -34 13 -57 0z"/>
<path d="M950 3080 l0 -190 48 0 c92 0 122 47 122 192 0 141 -32 188 -127 188
l-43 0 0 -190z"/>
<path d="M4067 3263 c-4 -3 -7 -89 -7 -190 l0 -183 49 0 c96 0 139 74 129 224
-6 87 -26 130 -69 145 -35 12 -92 15 -102 4z"/>
</g>
</svg>
