<?xml version="1.0" standalone="no"?>
<!DOCTYPE svg PUBLIC "-//W3C//DTD SVG 20010904//EN"
 "http://www.w3.org/TR/2001/REC-SVG-20010904/DTD/svg10.dtd">
<svg version="1.0" xmlns="http://www.w3.org/2000/svg"
 width="700.000000pt" height="700.000000pt" viewBox="0 0 700.000000 700.000000"
 preserveAspectRatio="xMidYMid meet">
<metadata>
Created by potrace 1.11, written by Peter Selinger 2001-2013
</metadata>
<g transform="translate(0.000000,700.000000) scale(0.100000,-0.100000)"
fill="#000000" stroke="none">
<path d="M644 5873 l1 -758 2843 -1 2842 -1 0 759 0 758 -2843 0 -2844 0 1
-757z m4032 372 c15 -10 24 -26 25 -43 3 -117 6 -133 39 -168 40 -40 180 -112
310 -158 62 -23 89 -36 78 -40 -10 -3 -25 -8 -33 -11 -8 -2 -63 -7 -122 -11
-118 -7 -168 2 -267 51 -94 46 -133 95 -114 144 5 13 6 26 3 30 -11 10 -25
-24 -25 -61 0 -30 7 -44 36 -72 71 -69 170 -101 339 -110 80 -5 140 -23 243
-74 59 -30 70 -39 58 -48 -9 -6 -37 -12 -63 -13 -64 -2 -70 -10 -50 -73 9 -29
15 -53 13 -55 -2 -2 -53 26 -115 62 -131 76 -161 87 -161 57 0 -31 -14 -34
-44 -11 l-27 21 -28 -26 -29 -27 -7 58 c-4 32 -11 66 -17 76 -15 29 -31 8 -25
-34 6 -46 0 -54 -24 -33 -10 9 -27 14 -39 11 -17 -4 -20 0 -20 24 0 22 5 29
20 29 30 0 24 14 -17 46 -87 66 -133 133 -133 191 0 15 12 52 25 82 l26 54
-27 28 -26 28 42 50 c23 27 50 52 59 54 21 4 68 -9 97 -28z m-2967 11 c44 -23
50 -37 55 -126 5 -78 7 -87 33 -109 34 -28 180 -98 283 -135 142 -52 141 -51
70 -60 -209 -26 -283 -17 -403 47 -81 42 -106 74 -100 126 6 49 0 52 -21 9
-14 -28 -14 -34 -1 -54 26 -41 77 -81 140 -113 71 -35 98 -40 216 -45 98 -4
122 -9 197 -46 32 -15 79 -35 106 -45 56 -22 48 -29 -47 -41 -36 -4 -61 -12
-64 -21 -3 -7 4 -36 15 -63 12 -28 17 -50 13 -50 -4 0 -64 32 -132 70 -119 68
-153 79 -155 52 -1 -6 -2 -17 -3 -23 0 -6 -15 -2 -34 10 l-33 20 -22 -21 c-12
-12 -23 -20 -26 -17 -2 2 -7 25 -10 51 -8 57 -15 78 -27 78 -10 0 -12 -18 -9
-64 l2 -29 -26 21 c-15 11 -35 18 -45 15 -28 -7 -34 14 -11 37 25 25 28 19
-66 115 -43 44 -65 75 -69 98 -7 36 9 112 25 122 15 9 12 40 -7 73 -17 29 -16
30 21 81 33 44 42 51 72 51 19 0 47 -6 63 -14z m1478 -6 c41 -25 49 -43 52
-114 3 -68 11 -94 37 -118 28 -24 185 -99 292 -138 50 -19 92 -38 92 -41 0
-10 -93 -22 -190 -24 -100 -2 -173 15 -253 58 -76 40 -97 67 -97 126 -1 42 -2
44 -15 27 -17 -23 -12 -68 13 -101 25 -33 70 -62 149 -95 57 -24 87 -30 175
-34 84 -4 121 -10 175 -32 122 -48 192 -92 151 -95 -129 -10 -135 -15 -106
-82 11 -26 18 -50 15 -53 -3 -4 -63 26 -132 66 -69 39 -133 69 -141 66 -8 -3
-14 -15 -14 -27 l0 -21 -35 21 -35 20 -25 -27 c-14 -15 -25 -25 -25 -22 -7 84
-27 150 -44 144 -9 -4 -12 -19 -9 -52 3 -26 1 -42 -4 -36 -15 20 -51 35 -58
24 -11 -19 -25 -10 -25 15 0 14 7 28 15 31 8 4 15 10 15 15 0 5 -34 46 -75 90
-70 74 -75 83 -75 124 0 25 9 64 22 90 l22 45 -22 30 c-12 16 -22 34 -22 40 0
6 20 30 44 55 49 51 81 57 133 25z"/>
<path d="M645 4008 c2 -541 6 -1003 9 -1028 3 -25 8 -67 11 -93 3 -27 10 -70
16 -95 6 -26 12 -55 14 -66 32 -153 113 -394 197 -583 183 -413 374 -662 718
-937 48 -38 186 -122 255 -156 83 -40 501 -223 650 -285 47 -19 104 -44 128
-54 23 -11 96 -42 162 -70 66 -27 237 -99 380 -159 144 -60 270 -112 281 -116
20 -6 238 83 1169 479 519 220 557 240 755 393 105 82 306 283 382 382 166
220 316 513 413 805 54 164 108 387 120 495 3 25 8 70 11 100 4 30 8 486 11
1013 l5 957 -2845 0 -2845 0 3 -982z m1751 660 c124 -45 203 -201 231 -453 14
-124 5 -788 -11 -836 -3 -8 -7 -32 -10 -54 -15 -112 -74 -229 -144 -282 -92
-70 -224 -80 -324 -26 -114 62 -169 188 -195 443 -10 96 -10 635 0 761 7 96
43 242 74 302 39 78 92 128 160 153 52 19 158 15 219 -8z m-961 -13 c177 -13
261 -90 300 -275 13 -64 14 -265 0 -328 -16 -78 -55 -156 -100 -204 l-35 -36
29 -139 c16 -76 55 -254 85 -394 31 -141 56 -259 56 -262 0 -4 -49 -7 -110 -7
-105 0 -110 1 -115 23 -3 12 -28 131 -55 265 -27 133 -57 273 -66 310 -8 37
-18 78 -20 92 -3 13 -10 30 -16 37 -11 14 -77 18 -79 6 -2 -15 -8 -409 -9
-570 l0 -163 -111 0 -110 0 2 818 c1 449 3 822 6 828 4 12 184 11 348 -1z
m1976 6 c12 -2 8 -201 -5 -202 -6 0 -57 -1 -113 -1 -87 1 -102 -2 -105 -16 -2
-9 -3 -335 -3 -724 l0 -707 -80 -3 c-44 -2 -94 -1 -110 2 l-30 5 0 720 0 720
-110 2 c-60 1 -113 2 -116 2 -11 2 -4 192 8 199 8 5 619 8 664 3z m386 -316
c2 -176 5 -324 7 -330 3 -8 230 -13 266 -6 3 1 5 147 5 326 l-1 325 26 1 c77
3 182 0 187 -5 3 -3 6 -373 5 -823 l0 -818 -109 -3 -109 -3 0 391 1 391 -137
-2 -138 -1 0 -388 0 -388 -68 -4 c-37 -2 -83 -1 -102 2 l-35 5 0 820 0 820 30
5 c17 3 61 5 99 5 l70 0 3 -320z m1330 220 c1 -92 -1 -105 -15 -106 -9 0 -90
-1 -179 -1 l-163 0 0 -234 0 -233 113 0 c61 1 123 0 137 0 l25 -1 0 -107 0
-108 -125 -1 c-69 -1 -131 -2 -137 -3 -10 -1 -13 -64 -13 -280 l0 -278 183 -1
c100 0 190 0 200 -1 15 -1 17 -13 17 -101 l0 -100 -309 0 -309 0 0 824 c-1
758 1 825 16 828 9 2 138 4 287 6 l271 3 1 -106z m565 91 c100 -6 144 -24 207
-86 82 -81 110 -179 106 -372 -4 -172 -30 -255 -110 -343 -40 -45 -40 -39 -6
-190 120 -543 139 -640 128 -647 -7 -4 -55 -8 -108 -8 l-96 0 -17 78 c-9 42
-19 91 -22 107 -2 17 -7 38 -10 47 -5 16 -9 37 -18 86 -3 12 -7 30 -10 40 -3
9 -7 28 -10 42 -2 14 -11 57 -20 95 -9 39 -18 81 -20 95 -3 14 -11 53 -17 88
l-13 62 -48 0 c-47 0 -48 0 -49 -32 0 -18 -1 -185 -1 -371 l-1 -338 -106 3
-106 3 0 818 c0 618 3 820 12 825 13 8 197 6 335 -2z m-1749 -2128 c283 -43
480 -139 721 -352 124 -110 201 -160 291 -193 71 -25 337 -25 470 1 11 2 52 7
90 10 l70 6 -40 -15 c-45 -18 -232 -70 -285 -80 -80 -14 -225 -17 -294 -6
-107 19 -264 68 -333 107 -59 33 -190 126 -243 173 -121 108 -266 216 -320
238 -19 8 -48 20 -65 28 -55 24 -227 76 -274 82 -25 3 -53 10 -61 14 -26 15
142 7 273 -13z m-1183 -23 c163 -7 203 -11 272 -24 397 -77 640 -205 1008
-533 210 -187 337 -266 470 -294 97 -21 353 -20 467 0 10 2 45 7 78 10 33 4
71 9 85 11 14 2 43 6 65 9 22 3 56 8 75 11 74 11 113 14 107 9 -19 -20 -413
-134 -512 -148 -23 -4 -52 -9 -65 -12 -52 -11 -256 -10 -334 1 -199 30 -394
98 -566 196 -67 38 -266 198 -365 292 -61 59 -233 196 -294 235 -142 91 -450
196 -664 227 -62 9 -68 21 -9 19 26 -2 108 -5 182 -9z m-1075 -40 c236 -29
385 -60 539 -110 164 -53 361 -140 446 -196 14 -9 65 -42 114 -74 77 -51 283
-216 386 -311 19 -18 44 -41 56 -51 11 -10 49 -42 83 -72 137 -121 260 -197
387 -240 74 -25 95 -29 212 -45 91 -13 119 -13 257 -1 66 5 93 8 190 20 22 2
63 7 90 10 46 5 86 10 155 20 14 2 48 7 75 10 28 3 61 7 75 10 14 3 41 7 60 9
19 3 53 8 75 11 162 25 -408 -153 -625 -195 -116 -23 -140 -24 -305 -24 -184
1 -226 5 -355 35 -293 68 -528 174 -735 333 -40 31 -226 185 -235 196 -14 15
-185 166 -255 224 -239 199 -476 306 -875 396 -52 12 -104 24 -115 26 -11 3
-45 8 -75 11 -39 4 -49 8 -35 14 23 8 334 4 410 -6z"/>
<path d="M2217 4448 c-56 -75 -66 -162 -66 -558 0 -466 9 -567 61 -649 15 -25
63 -43 97 -36 45 8 65 41 88 139 12 55 18 206 18 476 0 475 -19 606 -96 645
-45 24 -75 19 -102 -17z"/>
<path d="M1300 4210 l0 -260 50 0 c76 0 127 25 153 74 19 36 22 57 22 181 0
117 -3 148 -19 183 -24 52 -79 82 -154 82 l-52 0 0 -260z"/>
<path d="M5562 4453 c-5 -10 -10 -128 -11 -262 l-2 -244 64 5 c74 6 116 27
142 71 58 97 51 333 -11 400 -42 45 -164 65 -182 30z"/>
</g>
</svg>
